<svg width="34" height="40" viewBox="0 0 34 40" fill="none" xmlns="http://www.w3.org/2000/svg">
<rect x="2.75676" y="2.75676" width="28.4865" height="34" fill="#F4EAF8"/>
<path fill-rule="evenodd" clip-rule="evenodd" d="M34 33.8687C34 36.9863 31.4629 39.5135 28.3333 39.5135L5.66667 39.5135C2.53706 39.5135 2.75012e-06 36.9863 2.47758e-06 33.8687L7.49284e-06 5.64479C7.2203e-06 2.52726 2.53706 4.16348e-06 5.66667 3.88988e-06C5.66667 3.88988e-06 17 3.89702e-06 23.8403 4.81329e-06C30.6805 5.72957e-06 34 0.658565 34 10.1205C34 19.5825 34 33.8687 34 33.8687ZM30.9487 36.503C30.9487 36.503 30.7308 15.8054 30.7308 12.5126C30.7308 10.5369 29.0587 10.1205 29.0587 10.1205C29.0587 10.1205 29.3606 10.0829 26.4495 10.1406C23.5385 10.1983 23.8403 7.71455 23.8403 7.71455L23.8403 5.26848C23.8403 5.26848 23.9786 3.50227 22.2308 3.2928C20.9231 3.2928 6.94511 3.26469 5.66667 3.2928C3.92308 3.33113 3.05128 5.64479 3.05128 5.64479L3.05128 19.7568C3.05128 19.7568 2.83333 32.7201 3.05128 33.8687C3.26923 35.0173 3.92308 36.503 5.66667 36.503C7.41026 36.503 15.6923 36.503 15.6923 36.503L30.9487 36.503Z" fill="#902BB8"/>
<path fill-rule="evenodd" clip-rule="evenodd" d="M22.0541 21.1351L9.18919 21.1351L9.18919 18.3784L22.0541 18.3784L22.0541 21.1351Z" fill="#902BB8"/>
<path fill-rule="evenodd" clip-rule="evenodd" d="M22.0541 14.7027L9.18919 14.7027L9.18919 11.946L22.0541 11.946L22.0541 14.7027Z" fill="#902BB8"/>
<path fill-rule="evenodd" clip-rule="evenodd" d="M26.6486 29.4054L9.18919 29.4054V26.6487L26.6486 26.6487V29.4054Z" fill="#902BB8"/>
</svg>
