<svg width="49" height="45" viewBox="0 0 49 45" fill="none" xmlns="http://www.w3.org/2000/svg">
<path d="M23.5 19C27.9183 19 31.5 15.4183 31.5 11C31.5 6.58172 27.9183 3 23.5 3C19.0817 3 15.5 6.58172 15.5 11C15.5 15.4183 19.0817 19 23.5 19Z" stroke="#8A8B8F" stroke-width="2" stroke-linecap="round" stroke-linejoin="round"/>
<path d="M33.5 21L29.15 16.65" stroke="#8A8B8F" stroke-width="2" stroke-linecap="round" stroke-linejoin="round"/>
<path d="M0.93 37.51C0.93 36.83 1.08333 36.22 1.39 35.68C1.69667 35.1333 2.11333 34.7067 2.64 34.4C3.17333 34.0933 3.76333 33.94 4.41 33.94C5.17 33.94 5.83333 34.1233 6.4 34.49C6.96667 34.8567 7.38 35.3767 7.64 36.05H6.55C6.35667 35.63 6.07667 35.3067 5.71 35.08C5.35 34.8533 4.91667 34.74 4.41 34.74C3.92333 34.74 3.48667 34.8533 3.1 35.08C2.71333 35.3067 2.41 35.63 2.19 36.05C1.97 36.4633 1.86 36.95 1.86 37.51C1.86 38.0633 1.97 38.55 2.19 38.97C2.41 39.3833 2.71333 39.7033 3.1 39.93C3.48667 40.1567 3.92333 40.27 4.41 40.27C4.91667 40.27 5.35 40.16 5.71 39.94C6.07667 39.7133 6.35667 39.39 6.55 38.97H7.64C7.38 39.6367 6.96667 40.1533 6.4 40.52C5.83333 40.88 5.17 41.06 4.41 41.06C3.76333 41.06 3.17333 40.91 2.64 40.61C2.11333 40.3033 1.69667 39.88 1.39 39.34C1.08333 38.8 0.93 38.19 0.93 37.51ZM11.8646 35.42C12.2779 35.42 12.6513 35.51 12.9846 35.69C13.3179 35.8633 13.5779 36.1267 13.7646 36.48C13.9579 36.8333 14.0546 37.2633 14.0546 37.77V41H13.1546V37.9C13.1546 37.3533 13.0179 36.9367 12.7446 36.65C12.4713 36.3567 12.0979 36.21 11.6246 36.21C11.1446 36.21 10.7613 36.36 10.4746 36.66C10.1946 36.96 10.0546 37.3967 10.0546 37.97V41H9.14461V33.6H10.0546V36.3C10.2346 36.02 10.4813 35.8033 10.7946 35.65C11.1146 35.4967 11.4713 35.42 11.8646 35.42ZM20.6911 38.05C20.6911 38.2233 20.6811 38.4067 20.6611 38.6H16.2811C16.3144 39.14 16.4978 39.5633 16.8311 39.87C17.1711 40.17 17.5811 40.32 18.0611 40.32C18.4544 40.32 18.7811 40.23 19.0411 40.05C19.3078 39.8633 19.4944 39.6167 19.6011 39.31H20.5811C20.4344 39.8367 20.1411 40.2667 19.7011 40.6C19.2611 40.9267 18.7144 41.09 18.0611 41.09C17.5411 41.09 17.0744 40.9733 16.6611 40.74C16.2544 40.5067 15.9344 40.1767 15.7011 39.75C15.4678 39.3167 15.3511 38.8167 15.3511 38.25C15.3511 37.6833 15.4644 37.1867 15.6911 36.76C15.9178 36.3333 16.2344 36.0067 16.6411 35.78C17.0544 35.5467 17.5278 35.43 18.0611 35.43C18.5811 35.43 19.0411 35.5433 19.4411 35.77C19.8411 35.9967 20.1478 36.31 20.3611 36.71C20.5811 37.1033 20.6911 37.55 20.6911 38.05ZM19.7511 37.86C19.7511 37.5133 19.6744 37.2167 19.5211 36.97C19.3678 36.7167 19.1578 36.5267 18.8911 36.4C18.6311 36.2667 18.3411 36.2 18.0211 36.2C17.5611 36.2 17.1678 36.3467 16.8411 36.64C16.5211 36.9333 16.3378 37.34 16.2911 37.86H19.7511ZM22.9523 36.41C23.1123 36.0967 23.3389 35.8533 23.6323 35.68C23.9323 35.5067 24.2956 35.42 24.7223 35.42V36.36H24.4823C23.4623 36.36 22.9523 36.9133 22.9523 38.02V41H22.0423V35.52H22.9523V36.41ZM25.5827 38.25C25.5827 37.6833 25.6961 37.19 25.9227 36.77C26.1494 36.3433 26.4627 36.0133 26.8627 35.78C27.2694 35.5467 27.7327 35.43 28.2527 35.43C28.9261 35.43 29.4794 35.5933 29.9127 35.92C30.3527 36.2467 30.6427 36.7 30.7827 37.28H29.8027C29.7094 36.9467 29.5261 36.6833 29.2527 36.49C28.9861 36.2967 28.6527 36.2 28.2527 36.2C27.7327 36.2 27.3127 36.38 26.9927 36.74C26.6727 37.0933 26.5127 37.5967 26.5127 38.25C26.5127 38.91 26.6727 39.42 26.9927 39.78C27.3127 40.14 27.7327 40.32 28.2527 40.32C28.6527 40.32 28.9861 40.2267 29.2527 40.04C29.5194 39.8533 29.7027 39.5867 29.8027 39.24H30.7827C30.6361 39.8 30.3427 40.25 29.9027 40.59C29.4627 40.9233 28.9127 41.09 28.2527 41.09C27.7327 41.09 27.2694 40.9733 26.8627 40.74C26.4627 40.5067 26.1494 40.1767 25.9227 39.75C25.6961 39.3233 25.5827 38.8233 25.5827 38.25ZM34.867 35.42C35.2803 35.42 35.6536 35.51 35.987 35.69C36.3203 35.8633 36.5803 36.1267 36.767 36.48C36.9603 36.8333 37.057 37.2633 37.057 37.77V41H36.157V37.9C36.157 37.3533 36.0203 36.9367 35.747 36.65C35.4736 36.3567 35.1003 36.21 34.627 36.21C34.147 36.21 33.7636 36.36 33.477 36.66C33.197 36.96 33.057 37.3967 33.057 37.97V41H32.147V33.6H33.057V36.3C33.237 36.02 33.4836 35.8033 33.797 35.65C34.117 35.4967 34.4736 35.42 34.867 35.42ZM43.6934 38.05C43.6934 38.2233 43.6834 38.4067 43.6634 38.6H39.2834C39.3168 39.14 39.5001 39.5633 39.8334 39.87C40.1734 40.17 40.5834 40.32 41.0634 40.32C41.4568 40.32 41.7834 40.23 42.0434 40.05C42.3101 39.8633 42.4968 39.6167 42.6034 39.31H43.5834C43.4368 39.8367 43.1434 40.2667 42.7034 40.6C42.2634 40.9267 41.7168 41.09 41.0634 41.09C40.5434 41.09 40.0768 40.9733 39.6634 40.74C39.2568 40.5067 38.9368 40.1767 38.7034 39.75C38.4701 39.3167 38.3534 38.8167 38.3534 38.25C38.3534 37.6833 38.4668 37.1867 38.6934 36.76C38.9201 36.3333 39.2368 36.0067 39.6434 35.78C40.0568 35.5467 40.5301 35.43 41.0634 35.43C41.5834 35.43 42.0434 35.5433 42.4434 35.77C42.8434 35.9967 43.1501 36.31 43.3634 36.71C43.5834 37.1033 43.6934 37.55 43.6934 38.05ZM42.7534 37.86C42.7534 37.5133 42.6768 37.2167 42.5234 36.97C42.3701 36.7167 42.1601 36.5267 41.8934 36.4C41.6334 36.2667 41.3434 36.2 41.0234 36.2C40.5634 36.2 40.1701 36.3467 39.8434 36.64C39.5234 36.9333 39.3401 37.34 39.2934 37.86H42.7534ZM45.9546 36.41C46.1146 36.0967 46.3413 35.8533 46.6346 35.68C46.9346 35.5067 47.2979 35.42 47.7246 35.42V36.36H47.4846C46.4646 36.36 45.9546 36.9133 45.9546 38.02V41H45.0446V35.52H45.9546V36.41Z" fill="#8A8B8F"/>
</svg>
