<svg width="38" height="45" viewBox="0 0 38 45" fill="none" xmlns="http://www.w3.org/2000/svg">
<path d="M26 21L19 16L12 21V5C12 4.46957 12.2107 3.96086 12.5858 3.58579C12.9609 3.21071 13.4696 3 14 3H24C24.5304 3 25.0391 3.21071 25.4142 3.58579C25.7893 3.96086 26 4.46957 26 5V21Z" stroke="#8A8B8F" stroke-width="2" stroke-linecap="round" stroke-linejoin="round"/>
<path d="M5.65258 34.03V34.77H2.62258V37.12H5.08258V37.86H2.62258V41H1.71258V34.03H5.65258ZM6.56164 38.24C6.56164 37.68 6.67497 37.19 6.90164 36.77C7.12831 36.3433 7.43831 36.0133 7.83164 35.78C8.23164 35.5467 8.67497 35.43 9.16164 35.43C9.64164 35.43 10.0583 35.5333 10.4116 35.74C10.765 35.9467 11.0283 36.2067 11.2016 36.52V35.52H12.1216V41H11.2016V39.98C11.0216 40.3 10.7516 40.5667 10.3916 40.78C10.0383 40.9867 9.62497 41.09 9.15164 41.09C8.66497 41.09 8.22497 40.97 7.83164 40.73C7.43831 40.49 7.12831 40.1533 6.90164 39.72C6.67497 39.2867 6.56164 38.7933 6.56164 38.24ZM11.2016 38.25C11.2016 37.8367 11.1183 37.4767 10.9516 37.17C10.785 36.8633 10.5583 36.63 10.2716 36.47C9.99164 36.3033 9.68164 36.22 9.34164 36.22C9.00164 36.22 8.69164 36.3 8.41164 36.46C8.13164 36.62 7.90831 36.8533 7.74164 37.16C7.57497 37.4667 7.49164 37.8267 7.49164 38.24C7.49164 38.66 7.57497 39.0267 7.74164 39.34C7.90831 39.6467 8.13164 39.8833 8.41164 40.05C8.69164 40.21 9.00164 40.29 9.34164 40.29C9.68164 40.29 9.99164 40.21 10.2716 40.05C10.5583 39.8833 10.785 39.6467 10.9516 39.34C11.1183 39.0267 11.2016 38.6633 11.2016 38.25ZM15.8495 40.16L17.5495 35.52H18.5195L16.3695 41H15.3095L13.1595 35.52H14.1395L15.8495 40.16ZM21.9549 41.09C21.4416 41.09 20.9749 40.9733 20.5549 40.74C20.1416 40.5067 19.8149 40.1767 19.5749 39.75C19.3416 39.3167 19.2249 38.8167 19.2249 38.25C19.2249 37.69 19.3449 37.1967 19.5849 36.77C19.8316 36.3367 20.1649 36.0067 20.5849 35.78C21.0049 35.5467 21.4749 35.43 21.9949 35.43C22.5149 35.43 22.9849 35.5467 23.4049 35.78C23.8249 36.0067 24.1549 36.3333 24.3949 36.76C24.6416 37.1867 24.7649 37.6833 24.7649 38.25C24.7649 38.8167 24.6383 39.3167 24.3849 39.75C24.1383 40.1767 23.8016 40.5067 23.3749 40.74C22.9483 40.9733 22.4749 41.09 21.9549 41.09ZM21.9549 40.29C22.2816 40.29 22.5883 40.2133 22.8749 40.06C23.1616 39.9067 23.3916 39.6767 23.5649 39.37C23.7449 39.0633 23.8349 38.69 23.8349 38.25C23.8349 37.81 23.7483 37.4367 23.5749 37.13C23.4016 36.8233 23.1749 36.5967 22.8949 36.45C22.6149 36.2967 22.3116 36.22 21.9849 36.22C21.6516 36.22 21.3449 36.2967 21.0649 36.45C20.7916 36.5967 20.5716 36.8233 20.4049 37.13C20.2383 37.4367 20.1549 37.81 20.1549 38.25C20.1549 38.6967 20.2349 39.0733 20.3949 39.38C20.5616 39.6867 20.7816 39.9167 21.0549 40.07C21.3283 40.2167 21.6283 40.29 21.9549 40.29ZM27.0214 36.41C27.1814 36.0967 27.4081 35.8533 27.7014 35.68C28.0014 35.5067 28.3647 35.42 28.7914 35.42V36.36H28.5514C27.5314 36.36 27.0214 36.9133 27.0214 38.02V41H26.1114V35.52H27.0214V36.41ZM30.4619 34.63C30.2885 34.63 30.1419 34.57 30.0219 34.45C29.9019 34.33 29.8419 34.1833 29.8419 34.01C29.8419 33.8367 29.9019 33.69 30.0219 33.57C30.1419 33.45 30.2885 33.39 30.4619 33.39C30.6285 33.39 30.7685 33.45 30.8819 33.57C31.0019 33.69 31.0619 33.8367 31.0619 34.01C31.0619 34.1833 31.0019 34.33 30.8819 34.45C30.7685 34.57 30.6285 34.63 30.4619 34.63ZM30.9019 35.52V41H29.9919V35.52H30.9019ZM34.5428 41.09C34.1228 41.09 33.7461 41.02 33.4128 40.88C33.0795 40.7333 32.8161 40.5333 32.6228 40.28C32.4295 40.02 32.3228 39.7233 32.3028 39.39H33.2428C33.2695 39.6633 33.3961 39.8867 33.6228 40.06C33.8561 40.2333 34.1595 40.32 34.5328 40.32C34.8795 40.32 35.1528 40.2433 35.3528 40.09C35.5528 39.9367 35.6528 39.7433 35.6528 39.51C35.6528 39.27 35.5461 39.0933 35.3328 38.98C35.1195 38.86 34.7895 38.7433 34.3428 38.63C33.9361 38.5233 33.6028 38.4167 33.3428 38.31C33.0895 38.1967 32.8695 38.0333 32.6828 37.82C32.5028 37.6 32.4128 37.3133 32.4128 36.96C32.4128 36.68 32.4961 36.4233 32.6628 36.19C32.8295 35.9567 33.0661 35.7733 33.3728 35.64C33.6795 35.5 34.0295 35.43 34.4228 35.43C35.0295 35.43 35.5195 35.5833 35.8928 35.89C36.2661 36.1967 36.4661 36.6167 36.4928 37.15H35.5828C35.5628 36.8633 35.4461 36.6333 35.2328 36.46C35.0261 36.2867 34.7461 36.2 34.3928 36.2C34.0661 36.2 33.8061 36.27 33.6128 36.41C33.4195 36.55 33.3228 36.7333 33.3228 36.96C33.3228 37.14 33.3795 37.29 33.4928 37.41C33.6128 37.5233 33.7595 37.6167 33.9328 37.69C34.1128 37.7567 34.3595 37.8333 34.6728 37.92C35.0661 38.0267 35.3861 38.1333 35.6328 38.24C35.8795 38.34 36.0895 38.4933 36.2628 38.7C36.4428 38.9067 36.5361 39.1767 36.5428 39.51C36.5428 39.81 36.4595 40.08 36.2928 40.32C36.1261 40.56 35.8895 40.75 35.5828 40.89C35.2828 41.0233 34.9361 41.09 34.5428 41.09Z" fill="#86878B"/>
</svg>
