<svg width="38" height="45" viewBox="0 0 38 45" fill="none" xmlns="http://www.w3.org/2000/svg">
<path d="M10 9L19 2L28 9V20C28 20.5304 27.7893 21.0391 27.4142 21.4142C27.0391 21.7893 26.5304 22 26 22H12C11.4696 22 10.9609 21.7893 10.5858 21.4142C10.2107 21.0391 10 20.5304 10 20V9Z" stroke="#8A8B8F" stroke-width="1.5" stroke-linecap="round" stroke-linejoin="round"/>
<path d="M16 22V12H22V22" stroke="#8A8B8F" stroke-width="1.5" stroke-linecap="round" stroke-linejoin="round"/>
<path d="M4.89 39.45H1.85L1.29 41H0.33L2.85 34.07H3.9L6.41 41H5.45L4.89 39.45ZM4.63 38.71L3.37 35.19L2.11 38.71H4.63ZM7.31828 38.25C7.31828 37.6833 7.43161 37.19 7.65828 36.77C7.88495 36.3433 8.19828 36.0133 8.59828 35.78C9.00495 35.5467 9.46828 35.43 9.98828 35.43C10.6616 35.43 11.2149 35.5933 11.6483 35.92C12.0883 36.2467 12.3783 36.7 12.5183 37.28H11.5383C11.4449 36.9467 11.2616 36.6833 10.9883 36.49C10.7216 36.2967 10.3883 36.2 9.98828 36.2C9.46828 36.2 9.04828 36.38 8.72828 36.74C8.40828 37.0933 8.24828 37.5967 8.24828 38.25C8.24828 38.91 8.40828 39.42 8.72828 39.78C9.04828 40.14 9.46828 40.32 9.98828 40.32C10.3883 40.32 10.7216 40.2267 10.9883 40.04C11.2549 39.8533 11.4383 39.5867 11.5383 39.24H12.5183C12.3716 39.8 12.0783 40.25 11.6383 40.59C11.1983 40.9233 10.6483 41.09 9.98828 41.09C9.46828 41.09 9.00495 40.9733 8.59828 40.74C8.19828 40.5067 7.88495 40.1767 7.65828 39.75C7.43161 39.3233 7.31828 38.8233 7.31828 38.25ZM13.5425 38.25C13.5425 37.6833 13.6558 37.19 13.8825 36.77C14.1092 36.3433 14.4225 36.0133 14.8225 35.78C15.2292 35.5467 15.6925 35.43 16.2125 35.43C16.8858 35.43 17.4392 35.5933 17.8725 35.92C18.3125 36.2467 18.6025 36.7 18.7425 37.28H17.7625C17.6692 36.9467 17.4858 36.6833 17.2125 36.49C16.9458 36.2967 16.6125 36.2 16.2125 36.2C15.6925 36.2 15.2725 36.38 14.9525 36.74C14.6325 37.0933 14.4725 37.5967 14.4725 38.25C14.4725 38.91 14.6325 39.42 14.9525 39.78C15.2725 40.14 15.6925 40.32 16.2125 40.32C16.6125 40.32 16.9458 40.2267 17.2125 40.04C17.4792 39.8533 17.6625 39.5867 17.7625 39.24H18.7425C18.5958 39.8 18.3025 40.25 17.8625 40.59C17.4225 40.9233 16.8725 41.09 16.2125 41.09C15.6925 41.09 15.2292 40.9733 14.8225 40.74C14.4225 40.5067 14.1092 40.1767 13.8825 39.75C13.6558 39.3233 13.5425 38.8233 13.5425 38.25ZM24.9667 35.52V41H24.0567V40.19C23.8834 40.47 23.6401 40.69 23.3267 40.85C23.0201 41.0033 22.6801 41.08 22.3067 41.08C21.8801 41.08 21.4967 40.9933 21.1567 40.82C20.8167 40.64 20.5467 40.3733 20.3467 40.02C20.1534 39.6667 20.0567 39.2367 20.0567 38.73V35.52H20.9567V38.61C20.9567 39.15 21.0934 39.5667 21.3667 39.86C21.6401 40.1467 22.0134 40.29 22.4867 40.29C22.9734 40.29 23.3567 40.14 23.6367 39.84C23.9167 39.54 24.0567 39.1033 24.0567 38.53V35.52H24.9667ZM31.6532 38.05C31.6532 38.2233 31.6432 38.4067 31.6232 38.6H27.2432C27.2765 39.14 27.4599 39.5633 27.7932 39.87C28.1332 40.17 28.5432 40.32 29.0232 40.32C29.4165 40.32 29.7432 40.23 30.0032 40.05C30.2699 39.8633 30.4565 39.6167 30.5632 39.31H31.5432C31.3965 39.8367 31.1032 40.2667 30.6632 40.6C30.2232 40.9267 29.6765 41.09 29.0232 41.09C28.5032 41.09 28.0365 40.9733 27.6232 40.74C27.2165 40.5067 26.8965 40.1767 26.6632 39.75C26.4299 39.3167 26.3132 38.8167 26.3132 38.25C26.3132 37.6833 26.4265 37.1867 26.6532 36.76C26.8799 36.3333 27.1965 36.0067 27.6032 35.78C28.0165 35.5467 28.4899 35.43 29.0232 35.43C29.5432 35.43 30.0032 35.5433 30.4032 35.77C30.8032 35.9967 31.1099 36.31 31.3232 36.71C31.5432 37.1033 31.6532 37.55 31.6532 38.05ZM30.7132 37.86C30.7132 37.5133 30.6365 37.2167 30.4832 36.97C30.3299 36.7167 30.1199 36.5267 29.8532 36.4C29.5932 36.2667 29.3032 36.2 28.9832 36.2C28.5232 36.2 28.1299 36.3467 27.8032 36.64C27.4832 36.9333 27.2999 37.34 27.2532 37.86H30.7132ZM33.4744 34.63C33.301 34.63 33.1544 34.57 33.0344 34.45C32.9144 34.33 32.8544 34.1833 32.8544 34.01C32.8544 33.8367 32.9144 33.69 33.0344 33.57C33.1544 33.45 33.301 33.39 33.4744 33.39C33.641 33.39 33.781 33.45 33.8944 33.57C34.0144 33.69 34.0744 33.8367 34.0744 34.01C34.0744 34.1833 34.0144 34.33 33.8944 34.45C33.781 34.57 33.641 34.63 33.4744 34.63ZM33.9144 35.52V41H33.0044V35.52H33.9144ZM36.5253 33.6V41H35.6153V33.6H36.5253Z" fill="#8A8B8F"/>
</svg>
