<svg width="31" height="45" viewBox="0 0 31 45" fill="none" xmlns="http://www.w3.org/2000/svg">
<path d="M6.5 9L15.5 2L24.5 9V20C24.5 20.5304 24.2893 21.0391 23.9142 21.4142C23.5391 21.7893 23.0304 22 22.5 22H8.5C7.96957 22 7.46086 21.7893 7.08579 21.4142C6.71071 21.0391 6.5 20.5304 6.5 20V9Z" stroke="#8A8B8F" stroke-width="2" stroke-linecap="round" stroke-linejoin="round"/>
<path d="M12.5 22V12H18.5V22" stroke="#8A8B8F" stroke-width="2" stroke-linecap="round" stroke-linejoin="round"/>
<path d="M6.48 34.02V41H5.08V38.03H2.09V41H0.69V34.02H2.09V36.89H5.08V34.02H6.48ZM10.468 41.09C9.93464 41.09 9.45464 40.9733 9.02797 40.74C8.6013 40.5 8.26464 40.1633 8.01797 39.73C7.77797 39.2967 7.65797 38.7967 7.65797 38.23C7.65797 37.6633 7.7813 37.1633 8.02797 36.73C8.2813 36.2967 8.62464 35.9633 9.05797 35.73C9.4913 35.49 9.97464 35.37 10.508 35.37C11.0413 35.37 11.5246 35.49 11.958 35.73C12.3913 35.9633 12.7313 36.2967 12.978 36.73C13.2313 37.1633 13.358 37.6633 13.358 38.23C13.358 38.7967 13.228 39.2967 12.968 39.73C12.7146 40.1633 12.368 40.5 11.928 40.74C11.4946 40.9733 11.008 41.09 10.468 41.09ZM10.468 39.87C10.7213 39.87 10.958 39.81 11.178 39.69C11.4046 39.5633 11.5846 39.3767 11.718 39.13C11.8513 38.8833 11.918 38.5833 11.918 38.23C11.918 37.7033 11.778 37.3 11.498 37.02C11.2246 36.7333 10.888 36.59 10.488 36.59C10.088 36.59 9.7513 36.7333 9.47797 37.02C9.2113 37.3 9.07797 37.7033 9.07797 38.23C9.07797 38.7567 9.20797 39.1633 9.46797 39.45C9.73464 39.73 10.068 39.87 10.468 39.87ZM21.4149 35.38C22.0949 35.38 22.6416 35.59 23.0549 36.01C23.4749 36.4233 23.6849 37.0033 23.6849 37.75V41H22.2849V37.94C22.2849 37.5067 22.1749 37.1767 21.9549 36.95C21.7349 36.7167 21.4349 36.6 21.0549 36.6C20.6749 36.6 20.3716 36.7167 20.1449 36.95C19.9249 37.1767 19.8149 37.5067 19.8149 37.94V41H18.4149V37.94C18.4149 37.5067 18.3049 37.1767 18.0849 36.95C17.8649 36.7167 17.5649 36.6 17.1849 36.6C16.7983 36.6 16.4916 36.7167 16.2649 36.95C16.0449 37.1767 15.9349 37.5067 15.9349 37.94V41H14.5349V35.46H15.9349V36.13C16.1149 35.8967 16.3449 35.7133 16.6249 35.58C16.9116 35.4467 17.2249 35.38 17.5649 35.38C17.9983 35.38 18.3849 35.4733 18.7249 35.66C19.0649 35.84 19.3283 36.1 19.5149 36.44C19.6949 36.12 19.9549 35.8633 20.2949 35.67C20.6416 35.4767 21.0149 35.38 21.4149 35.38ZM30.3134 38.11C30.3134 38.31 30.3001 38.49 30.2734 38.65H26.2234C26.2568 39.05 26.3968 39.3633 26.6434 39.59C26.8901 39.8167 27.1934 39.93 27.5534 39.93C28.0734 39.93 28.4434 39.7067 28.6634 39.26H30.1734C30.0134 39.7933 29.7068 40.2333 29.2534 40.58C28.8001 40.92 28.2434 41.09 27.5834 41.09C27.0501 41.09 26.5701 40.9733 26.1434 40.74C25.7234 40.5 25.3934 40.1633 25.1534 39.73C24.9201 39.2967 24.8034 38.7967 24.8034 38.23C24.8034 37.6567 24.9201 37.1533 25.1534 36.72C25.3868 36.2867 25.7134 35.9533 26.1334 35.72C26.5534 35.4867 27.0368 35.37 27.5834 35.37C28.1101 35.37 28.5801 35.4833 28.9934 35.71C29.4134 35.9367 29.7368 36.26 29.9634 36.68C30.1968 37.0933 30.3134 37.57 30.3134 38.11ZM28.8634 37.71C28.8568 37.35 28.7268 37.0633 28.4734 36.85C28.2201 36.63 27.9101 36.52 27.5434 36.52C27.1968 36.52 26.9034 36.6267 26.6634 36.84C26.4301 37.0467 26.2868 37.3367 26.2334 37.71H28.8634Z" fill="#8A8B8F"/>
</svg>
