<svg width="24" height="45" viewBox="0 0 24 45" fill="none" xmlns="http://www.w3.org/2000/svg">
<path d="M20 21V19C20 17.9391 19.5786 16.9217 18.8284 16.1716C18.0783 15.4214 17.0609 15 16 15H8C6.93913 15 5.92172 15.4214 5.17157 16.1716C4.42143 16.9217 4 17.9391 4 19V21" stroke="#902CB8" stroke-width="2" stroke-linecap="round" stroke-linejoin="round"/>
<path d="M12 11C14.2091 11 16 9.20914 16 7C16 4.79086 14.2091 3 12 3C9.79086 3 8 4.79086 8 7C8 9.20914 9.79086 11 12 11Z" stroke="#902CB8" stroke-width="2" stroke-linecap="round" stroke-linejoin="round"/>
<path d="M12.3578 34.08V41H11.4478V35.84L9.14777 41H8.50777L6.19777 35.83V41H5.28777V34.08H6.26777L8.82777 39.8L11.3878 34.08H12.3578ZM19.0511 38.05C19.0511 38.2233 19.0411 38.4067 19.0211 38.6H14.6411C14.6744 39.14 14.8577 39.5633 15.1911 39.87C15.5311 40.17 15.9411 40.32 16.4211 40.32C16.8144 40.32 17.1411 40.23 17.4011 40.05C17.6677 39.8633 17.8544 39.6167 17.9611 39.31H18.9411C18.7944 39.8367 18.5011 40.2667 18.0611 40.6C17.6211 40.9267 17.0744 41.09 16.4211 41.09C15.9011 41.09 15.4344 40.9733 15.0211 40.74C14.6144 40.5067 14.2944 40.1767 14.0611 39.75C13.8277 39.3167 13.7111 38.8167 13.7111 38.25C13.7111 37.6833 13.8244 37.1867 14.0511 36.76C14.2777 36.3333 14.5944 36.0067 15.0011 35.78C15.4144 35.5467 15.8877 35.43 16.4211 35.43C16.9411 35.43 17.4011 35.5433 17.8011 35.77C18.2011 35.9967 18.5077 36.31 18.7211 36.71C18.9411 37.1033 19.0511 37.55 19.0511 38.05ZM18.1111 37.86C18.1111 37.5133 18.0344 37.2167 17.8811 36.97C17.7277 36.7167 17.5177 36.5267 17.2511 36.4C16.9911 36.2667 16.7011 36.2 16.3811 36.2C15.9211 36.2 15.5277 36.3467 15.2011 36.64C14.8811 36.9333 14.6977 37.34 14.6511 37.86H18.1111Z" fill="#902CB8"/>
</svg>
