<svg width="42" height="45" viewBox="0 0 42 45" fill="none" xmlns="http://www.w3.org/2000/svg">
<path d="M28 21L21 16L14 21V5C14 4.46957 14.2107 3.96086 14.5858 3.58579C14.9609 3.21071 15.4696 3 16 3H26C26.5304 3 27.0391 3.21071 27.4142 3.58579C27.7893 3.96086 28 4.46957 28 5V21Z" stroke="#8A8B8F" stroke-width="2" stroke-linecap="round" stroke-linejoin="round"/>
<path d="M5.26801 34.03V34.77H2.23801V37.12H4.69801V37.86H2.23801V41H1.32801V34.03H5.26801ZM6.17707 38.24C6.17707 37.68 6.2904 37.19 6.51707 36.77C6.74374 36.3433 7.05374 36.0133 7.44707 35.78C7.84707 35.5467 8.2904 35.43 8.77707 35.43C9.25707 35.43 9.67374 35.5333 10.0271 35.74C10.3804 35.9467 10.6437 36.2067 10.8171 36.52V35.52H11.7371V41H10.8171V39.98C10.6371 40.3 10.3671 40.5667 10.0071 40.78C9.65374 40.9867 9.2404 41.09 8.76707 41.09C8.2804 41.09 7.8404 40.97 7.44707 40.73C7.05374 40.49 6.74374 40.1533 6.51707 39.72C6.2904 39.2867 6.17707 38.7933 6.17707 38.24ZM10.8171 38.25C10.8171 37.8367 10.7337 37.4767 10.5671 37.17C10.4004 36.8633 10.1737 36.63 9.88707 36.47C9.60707 36.3033 9.29707 36.22 8.95707 36.22C8.61707 36.22 8.30707 36.3 8.02707 36.46C7.74707 36.62 7.52374 36.8533 7.35707 37.16C7.1904 37.4667 7.10707 37.8267 7.10707 38.24C7.10707 38.66 7.1904 39.0267 7.35707 39.34C7.52374 39.6467 7.74707 39.8833 8.02707 40.05C8.30707 40.21 8.61707 40.29 8.95707 40.29C9.29707 40.29 9.60707 40.21 9.88707 40.05C10.1737 39.8833 10.4004 39.6467 10.5671 39.34C10.7337 39.0267 10.8171 38.6633 10.8171 38.25ZM15.4649 40.16L17.1649 35.52H18.1349L15.9849 41H14.9249L12.7749 35.52H13.7549L15.4649 40.16ZM21.5704 41.09C21.057 41.09 20.5904 40.9733 20.1704 40.74C19.757 40.5067 19.4304 40.1767 19.1904 39.75C18.957 39.3167 18.8404 38.8167 18.8404 38.25C18.8404 37.69 18.9604 37.1967 19.2004 36.77C19.447 36.3367 19.7804 36.0067 20.2004 35.78C20.6204 35.5467 21.0904 35.43 21.6104 35.43C22.1304 35.43 22.6004 35.5467 23.0204 35.78C23.4404 36.0067 23.7704 36.3333 24.0104 36.76C24.257 37.1867 24.3804 37.6833 24.3804 38.25C24.3804 38.8167 24.2537 39.3167 24.0004 39.75C23.7537 40.1767 23.417 40.5067 22.9904 40.74C22.5637 40.9733 22.0904 41.09 21.5704 41.09ZM21.5704 40.29C21.897 40.29 22.2037 40.2133 22.4904 40.06C22.777 39.9067 23.007 39.6767 23.1804 39.37C23.3604 39.0633 23.4504 38.69 23.4504 38.25C23.4504 37.81 23.3637 37.4367 23.1904 37.13C23.017 36.8233 22.7904 36.5967 22.5104 36.45C22.2304 36.2967 21.927 36.22 21.6004 36.22C21.267 36.22 20.9604 36.2967 20.6804 36.45C20.407 36.5967 20.187 36.8233 20.0204 37.13C19.8537 37.4367 19.7704 37.81 19.7704 38.25C19.7704 38.6967 19.8504 39.0733 20.0104 39.38C20.177 39.6867 20.397 39.9167 20.6704 40.07C20.9437 40.2167 21.2437 40.29 21.5704 40.29ZM26.6368 36.41C26.7968 36.0967 27.0235 35.8533 27.3168 35.68C27.6168 35.5067 27.9802 35.42 28.4068 35.42V36.36H28.1668C27.1468 36.36 26.6368 36.9133 26.6368 38.02V41H25.7268V35.52H26.6368V36.41ZM30.0773 34.63C29.904 34.63 29.7573 34.57 29.6373 34.45C29.5173 34.33 29.4573 34.1833 29.4573 34.01C29.4573 33.8367 29.5173 33.69 29.6373 33.57C29.7573 33.45 29.904 33.39 30.0773 33.39C30.244 33.39 30.384 33.45 30.4973 33.57C30.6173 33.69 30.6773 33.8367 30.6773 34.01C30.6773 34.1833 30.6173 34.33 30.4973 34.45C30.384 34.57 30.244 34.63 30.0773 34.63ZM30.5173 35.52V41H29.6073V35.52H30.5173ZM33.3282 36.27V39.5C33.3282 39.7667 33.3849 39.9567 33.4982 40.07C33.6116 40.1767 33.8082 40.23 34.0882 40.23H34.7582V41H33.9382C33.4316 41 33.0516 40.8833 32.7982 40.65C32.5449 40.4167 32.4182 40.0333 32.4182 39.5V36.27H31.7082V35.52H32.4182V34.14H33.3282V35.52H34.7582V36.27H33.3282ZM41.0108 38.05C41.0108 38.2233 41.0008 38.4067 40.9808 38.6H36.6008C36.6342 39.14 36.8175 39.5633 37.1508 39.87C37.4908 40.17 37.9008 40.32 38.3808 40.32C38.7742 40.32 39.1008 40.23 39.3608 40.05C39.6275 39.8633 39.8142 39.6167 39.9208 39.31H40.9008C40.7542 39.8367 40.4608 40.2667 40.0208 40.6C39.5808 40.9267 39.0342 41.09 38.3808 41.09C37.8608 41.09 37.3942 40.9733 36.9808 40.74C36.5742 40.5067 36.2542 40.1767 36.0208 39.75C35.7875 39.3167 35.6708 38.8167 35.6708 38.25C35.6708 37.6833 35.7842 37.1867 36.0108 36.76C36.2375 36.3333 36.5542 36.0067 36.9608 35.78C37.3742 35.5467 37.8475 35.43 38.3808 35.43C38.9008 35.43 39.3608 35.5433 39.7608 35.77C40.1608 35.9967 40.4675 36.31 40.6808 36.71C40.9008 37.1033 41.0108 37.55 41.0108 38.05ZM40.0708 37.86C40.0708 37.5133 39.9942 37.2167 39.8408 36.97C39.6875 36.7167 39.4775 36.5267 39.2108 36.4C38.9508 36.2667 38.6608 36.2 38.3408 36.2C37.8808 36.2 37.4875 36.3467 37.1608 36.64C36.8408 36.9333 36.6575 37.34 36.6108 37.86H40.0708Z" fill="#86878B"/>
</svg>
