<svg width="45" height="45" viewBox="0 0 45 45" fill="none" xmlns="http://www.w3.org/2000/svg">
<path d="M21.5 19C25.9183 19 29.5 15.4183 29.5 11C29.5 6.58172 25.9183 3 21.5 3C17.0817 3 13.5 6.58172 13.5 11C13.5 15.4183 17.0817 19 21.5 19Z" stroke="#8A8B8F" stroke-width="2" stroke-linecap="round" stroke-linejoin="round"/>
<path d="M31.5 20.9999L27.15 16.6499" stroke="#8A8B8F" stroke-width="2" stroke-linecap="round" stroke-linejoin="round"/>
<path d="M3.44 34.03C4.2 34.03 4.85667 34.1733 5.41 34.46C5.97 34.74 6.39667 35.1433 6.69 35.67C6.99 36.1967 7.14 36.8167 7.14 37.53C7.14 38.2433 6.99 38.8633 6.69 39.39C6.39667 39.91 5.97 40.31 5.41 40.59C4.85667 40.8633 4.2 41 3.44 41H1.27V34.03H3.44ZM3.44 40.25C4.34 40.25 5.02667 40.0133 5.5 39.54C5.97333 39.06 6.21 38.39 6.21 37.53C6.21 36.6633 5.97 35.9867 5.49 35.5C5.01667 35.0133 4.33333 34.77 3.44 34.77H2.18V40.25H3.44ZM8.96031 34.63C8.78698 34.63 8.64031 34.57 8.52031 34.45C8.40031 34.33 8.34031 34.1833 8.34031 34.01C8.34031 33.8367 8.40031 33.69 8.52031 33.57C8.64031 33.45 8.78698 33.39 8.96031 33.39C9.12698 33.39 9.26698 33.45 9.38031 33.57C9.50031 33.69 9.56031 33.8367 9.56031 34.01C9.56031 34.1833 9.50031 34.33 9.38031 34.45C9.26698 34.57 9.12698 34.63 8.96031 34.63ZM9.40031 35.52V41H8.49031V35.52H9.40031ZM13.0413 41.09C12.6213 41.09 12.2446 41.02 11.9113 40.88C11.5779 40.7333 11.3146 40.5333 11.1213 40.28C10.9279 40.02 10.8213 39.7233 10.8013 39.39H11.7413C11.7679 39.6633 11.8946 39.8867 12.1213 40.06C12.3546 40.2333 12.6579 40.32 13.0313 40.32C13.3779 40.32 13.6513 40.2433 13.8513 40.09C14.0513 39.9367 14.1513 39.7433 14.1513 39.51C14.1513 39.27 14.0446 39.0933 13.8313 38.98C13.6179 38.86 13.2879 38.7433 12.8413 38.63C12.4346 38.5233 12.1013 38.4167 11.8413 38.31C11.5879 38.1967 11.3679 38.0333 11.1813 37.82C11.0013 37.6 10.9113 37.3133 10.9113 36.96C10.9113 36.68 10.9946 36.4233 11.1613 36.19C11.3279 35.9567 11.5646 35.7733 11.8713 35.64C12.1779 35.5 12.5279 35.43 12.9213 35.43C13.5279 35.43 14.0179 35.5833 14.3913 35.89C14.7646 36.1967 14.9646 36.6167 14.9913 37.15H14.0813C14.0613 36.8633 13.9446 36.6333 13.7313 36.46C13.5246 36.2867 13.2446 36.2 12.8913 36.2C12.5646 36.2 12.3046 36.27 12.1113 36.41C11.9179 36.55 11.8213 36.7333 11.8213 36.96C11.8213 37.14 11.8779 37.29 11.9913 37.41C12.1113 37.5233 12.2579 37.6167 12.4313 37.69C12.6113 37.7567 12.8579 37.8333 13.1713 37.92C13.5646 38.0267 13.8846 38.1333 14.1313 38.24C14.3779 38.34 14.5879 38.4933 14.7613 38.7C14.9413 38.9067 15.0346 39.1767 15.0413 39.51C15.0413 39.81 14.9579 40.08 14.7913 40.32C14.6246 40.56 14.3879 40.75 14.0813 40.89C13.7813 41.0233 13.4346 41.09 13.0413 41.09ZM16.1359 38.25C16.1359 37.6833 16.2492 37.19 16.4759 36.77C16.7025 36.3433 17.0159 36.0133 17.4159 35.78C17.8225 35.5467 18.2859 35.43 18.8059 35.43C19.4792 35.43 20.0325 35.5933 20.4659 35.92C20.9059 36.2467 21.1959 36.7 21.3359 37.28H20.3559C20.2625 36.9467 20.0792 36.6833 19.8059 36.49C19.5392 36.2967 19.2059 36.2 18.8059 36.2C18.2859 36.2 17.8659 36.38 17.5459 36.74C17.2259 37.0933 17.0659 37.5967 17.0659 38.25C17.0659 38.91 17.2259 39.42 17.5459 39.78C17.8659 40.14 18.2859 40.32 18.8059 40.32C19.2059 40.32 19.5392 40.2267 19.8059 40.04C20.0725 39.8533 20.2559 39.5867 20.3559 39.24H21.3359C21.1892 39.8 20.8959 40.25 20.4559 40.59C20.0159 40.9233 19.4659 41.09 18.8059 41.09C18.2859 41.09 17.8225 40.9733 17.4159 40.74C17.0159 40.5067 16.7025 40.1767 16.4759 39.75C16.2492 39.3233 16.1359 38.8233 16.1359 38.25ZM25.0901 41.09C24.5767 41.09 24.1101 40.9733 23.6901 40.74C23.2767 40.5067 22.9501 40.1767 22.7101 39.75C22.4767 39.3167 22.3601 38.8167 22.3601 38.25C22.3601 37.69 22.4801 37.1967 22.7201 36.77C22.9667 36.3367 23.3001 36.0067 23.7201 35.78C24.1401 35.5467 24.6101 35.43 25.1301 35.43C25.6501 35.43 26.1201 35.5467 26.5401 35.78C26.9601 36.0067 27.2901 36.3333 27.5301 36.76C27.7767 37.1867 27.9001 37.6833 27.9001 38.25C27.9001 38.8167 27.7734 39.3167 27.5201 39.75C27.2734 40.1767 26.9367 40.5067 26.5101 40.74C26.0834 40.9733 25.6101 41.09 25.0901 41.09ZM25.0901 40.29C25.4167 40.29 25.7234 40.2133 26.0101 40.06C26.2967 39.9067 26.5267 39.6767 26.7001 39.37C26.8801 39.0633 26.9701 38.69 26.9701 38.25C26.9701 37.81 26.8834 37.4367 26.7101 37.13C26.5367 36.8233 26.3101 36.5967 26.0301 36.45C25.7501 36.2967 25.4467 36.22 25.1201 36.22C24.7867 36.22 24.4801 36.2967 24.2001 36.45C23.9267 36.5967 23.7067 36.8233 23.5401 37.13C23.3734 37.4367 23.2901 37.81 23.2901 38.25C23.2901 38.6967 23.3701 39.0733 23.5301 39.38C23.6967 39.6867 23.9167 39.9167 24.1901 40.07C24.4634 40.2167 24.7634 40.29 25.0901 40.29ZM31.2866 40.16L32.9866 35.52H33.9566L31.8066 41H30.7466L28.5966 35.52H29.5766L31.2866 40.16ZM40.002 38.05C40.002 38.2233 39.992 38.4067 39.972 38.6H35.592C35.6254 39.14 35.8087 39.5633 36.142 39.87C36.482 40.17 36.892 40.32 37.372 40.32C37.7654 40.32 38.092 40.23 38.352 40.05C38.6187 39.8633 38.8054 39.6167 38.912 39.31H39.892C39.7454 39.8367 39.452 40.2667 39.012 40.6C38.572 40.9267 38.0254 41.09 37.372 41.09C36.852 41.09 36.3854 40.9733 35.972 40.74C35.5654 40.5067 35.2454 40.1767 35.012 39.75C34.7787 39.3167 34.662 38.8167 34.662 38.25C34.662 37.6833 34.7754 37.1867 35.002 36.76C35.2287 36.3333 35.5454 36.0067 35.952 35.78C36.3654 35.5467 36.8387 35.43 37.372 35.43C37.892 35.43 38.352 35.5433 38.752 35.77C39.152 35.9967 39.4587 36.31 39.672 36.71C39.892 37.1033 40.002 37.55 40.002 38.05ZM39.062 37.86C39.062 37.5133 38.9854 37.2167 38.832 36.97C38.6787 36.7167 38.4687 36.5267 38.202 36.4C37.942 36.2667 37.652 36.2 37.332 36.2C36.872 36.2 36.4787 36.3467 36.152 36.64C35.832 36.9333 35.6487 37.34 35.602 37.86H39.062ZM42.2632 36.41C42.4232 36.0967 42.6499 35.8533 42.9432 35.68C43.2432 35.5067 43.6065 35.42 44.0332 35.42V36.36H43.7932C42.7732 36.36 42.2632 36.9133 42.2632 38.02V41H41.3532V35.52H42.2632V36.41Z" fill="#8A8B8F"/>
</svg>
