<svg width="24" height="45" viewBox="0 0 24 45" fill="none" xmlns="http://www.w3.org/2000/svg">
<path d="M20 21V19C20 17.9391 19.5786 16.9217 18.8284 16.1716C18.0783 15.4214 17.0609 15 16 15H8C6.93913 15 5.92172 15.4214 5.17157 16.1716C4.42143 16.9217 4 17.9391 4 19V21" stroke="#902CB8" stroke-width="2" stroke-linecap="round" stroke-linejoin="round"/>
<path d="M12 11C14.2091 11 16 9.20914 16 7C16 4.79086 14.2091 3 12 3C9.79086 3 8 4.79086 8 7C8 9.20914 9.79086 11 12 11Z" stroke="#902CB8" stroke-width="2" stroke-linecap="round" stroke-linejoin="round"/>
<path d="M10.9546 34.08V41H10.0446V35.84L7.74465 41H7.10465L4.79465 35.83V41H3.88465V34.08H4.86465L7.42465 39.8L9.98465 34.08H10.9546ZM15.0379 41.09C14.5246 41.09 14.0579 40.9733 13.6379 40.74C13.2246 40.5067 12.8979 40.1767 12.6579 39.75C12.4246 39.3167 12.3079 38.8167 12.3079 38.25C12.3079 37.69 12.4279 37.1967 12.6679 36.77C12.9146 36.3367 13.2479 36.0067 13.6679 35.78C14.0879 35.5467 14.5579 35.43 15.0779 35.43C15.5979 35.43 16.0679 35.5467 16.4879 35.78C16.9079 36.0067 17.2379 36.3333 17.4779 36.76C17.7246 37.1867 17.8479 37.6833 17.8479 38.25C17.8479 38.8167 17.7213 39.3167 17.4679 39.75C17.2213 40.1767 16.8846 40.5067 16.4579 40.74C16.0313 40.9733 15.5579 41.09 15.0379 41.09ZM15.0379 40.29C15.3646 40.29 15.6713 40.2133 15.9579 40.06C16.2446 39.9067 16.4746 39.6767 16.6479 39.37C16.8279 39.0633 16.9179 38.69 16.9179 38.25C16.9179 37.81 16.8313 37.4367 16.6579 37.13C16.4846 36.8233 16.2579 36.5967 15.9779 36.45C15.6979 36.2967 15.3946 36.22 15.0679 36.22C14.7346 36.22 14.4279 36.2967 14.1479 36.45C13.8746 36.5967 13.6546 36.8233 13.4879 37.13C13.3213 37.4367 13.2379 37.81 13.2379 38.25C13.2379 38.6967 13.3179 39.0733 13.4779 39.38C13.6446 39.6867 13.8646 39.9167 14.1379 40.07C14.4113 40.2167 14.7113 40.29 15.0379 40.29ZM19.6644 34.63C19.4911 34.63 19.3444 34.57 19.2244 34.45C19.1044 34.33 19.0444 34.1833 19.0444 34.01C19.0444 33.8367 19.1044 33.69 19.2244 33.57C19.3444 33.45 19.4911 33.39 19.6644 33.39C19.8311 33.39 19.9711 33.45 20.0844 33.57C20.2044 33.69 20.2644 33.8367 20.2644 34.01C20.2644 34.1833 20.2044 34.33 20.0844 34.45C19.9711 34.57 19.8311 34.63 19.6644 34.63ZM20.1044 35.52V41H19.1944V35.52H20.1044Z" fill="#902CB8"/>
</svg>
