<svg width="28" height="34" viewBox="0 0 28 34" fill="none" xmlns="http://www.w3.org/2000/svg">
<circle cx="14" cy="20" r="14" fill="white"/>
<path d="M8.38851 22.21C7.58351 22.21 6.93251 21.979 6.43551 21.517C5.93851 21.055 5.69001 20.425 5.69001 19.627C5.69001 18.829 5.93151 18.2025 6.41451 17.7475C6.90451 17.2855 7.56251 17.0545 8.38851 17.0545C9.21451 17.0545 9.86901 17.289 10.352 17.758C10.842 18.227 11.087 18.85 11.087 19.627C11.087 20.404 10.8385 21.0305 10.3415 21.5065C9.84451 21.9755 9.19351 22.21 8.38851 22.21ZM14.4998 22.21C13.6948 22.21 13.0438 21.979 12.5468 21.517C12.0498 21.055 11.8013 20.425 11.8013 19.627C11.8013 18.829 12.0428 18.2025 12.5258 17.7475C13.0158 17.2855 13.6738 17.0545 14.4998 17.0545C15.3258 17.0545 15.9803 17.289 16.4633 17.758C16.9533 18.227 17.1983 18.85 17.1983 19.627C17.1983 20.404 16.9498 21.0305 16.4528 21.5065C15.9558 21.9755 15.3048 22.21 14.4998 22.21ZM20.6112 22.21C19.8062 22.21 19.1552 21.979 18.6582 21.517C18.1612 21.055 17.9127 20.425 17.9127 19.627C17.9127 18.829 18.1542 18.2025 18.6372 17.7475C19.1272 17.2855 19.7852 17.0545 20.6112 17.0545C21.4372 17.0545 22.0917 17.289 22.5747 17.758C23.0647 18.227 23.3097 18.85 23.3097 19.627C23.3097 20.404 23.0612 21.0305 22.5642 21.5065C22.0672 21.9755 21.4162 22.21 20.6112 22.21Z" fill="#BB6699"/>
</svg>
