<svg width="20" height="21" viewBox="0 0 20 21" fill="none" xmlns="http://www.w3.org/2000/svg">
<path fill-rule="evenodd" clip-rule="evenodd" d="M3.19559 10.0743C3.64641 10.7725 4.17912 11.4708 4.78784 12.1203C6.49112 13.9372 8.43529 15.0097 10.5882 15.0097C12.7412 15.0097 14.6854 13.9372 16.3886 12.1203C16.9973 11.4708 17.5301 10.7725 17.9809 10.0743C18.1087 9.87628 18.2223 9.69018 18.321 9.51949C18.2223 9.34879 18.1087 9.1627 17.9809 8.96469C17.53 8.26651 16.9973 7.56816 16.3886 6.91866C14.6853 5.10178 12.7412 4.02929 10.5882 4.02929C8.43529 4.02929 6.49103 5.10178 4.78784 6.91866C4.17912 7.56816 3.64637 8.26651 3.19559 8.96469C3.06778 9.16269 2.95416 9.34879 2.85542 9.51949C2.95416 9.69018 3.06779 9.87628 3.19559 10.0743ZM1.2593 9.16865C1.3696 8.94824 1.57653 8.58042 1.87802 8.1135C2.37698 7.34111 2.96558 6.56885 3.64363 5.84581C5.61685 3.74111 7.93745 2.46066 10.5882 2.46066C13.239 2.46066 15.5599 3.74111 17.5328 5.84581C18.2109 6.56885 18.7995 7.34107 19.2984 8.1135C19.5999 8.58042 19.8068 8.94824 19.9171 9.16865C20.0276 9.38959 20.0276 9.64941 19.9171 9.87032C19.8068 10.0907 19.5999 10.4586 19.2984 10.9255C18.7995 11.6979 18.2109 12.4701 17.5328 13.1932C15.5596 15.2979 13.239 16.5783 10.5882 16.5783C7.93745 16.5783 5.61653 15.2979 3.64363 13.1932C2.96558 12.4701 2.37698 11.6979 1.87802 10.9255C1.57654 10.4586 1.3696 10.0907 1.2593 9.87032C1.14884 9.64938 1.14884 9.38956 1.2593 9.16865Z" fill="white"/>
<path fill-rule="evenodd" clip-rule="evenodd" d="M10.5 12.6666C8.567 12.6666 7 11.0996 7 9.16656C7 7.23356 8.567 5.66656 10.5 5.66656C12.433 5.66656 14 7.23356 14 9.16656C14 11.0996 12.433 12.6666 10.5 12.6666ZM10.5 10.9166C11.4664 10.9166 12.25 10.133 12.25 9.16656C12.25 8.20017 11.4664 7.41656 10.5 7.41656C9.5336 7.41656 8.75 8.20017 8.75 9.16656C8.75 10.133 9.5336 10.9166 10.5 10.9166Z" fill="white"/>
</svg>
