<svg width="37" height="37" viewBox="0 0 37 37" fill="none" xmlns="http://www.w3.org/2000/svg">
<path d="M0.00871692 36.9191C0.0110199 36.9093 0.0130352 36.9001 0.0167778 36.888C0.0305956 36.8422 0.0536249 36.7824 0.0861544 36.7081C0.0965181 36.6848 0.110048 36.6566 0.122138 36.6304C0.151213 36.5676 0.186333 36.4956 0.22548 36.4173C0.243616 36.3811 0.259449 36.3488 0.279887 36.3094C0.331992 36.2086 0.394461 36.0935 0.460668 35.9723C0.495212 35.9095 0.531484 35.8442 0.569773 35.776C0.625332 35.6772 0.68607 35.571 0.749403 35.4613C0.811583 35.354 0.877794 35.2411 0.947458 35.1237C1.00302 35.0301 1.06059 34.9334 1.12105 34.8335C1.18294 34.7307 1.24512 34.6279 1.3119 34.5188C1.41035 34.3585 1.51456 34.1907 1.62338 34.0168C1.70225 33.8913 1.78573 33.76 1.87008 33.6276C1.92766 33.5375 1.98783 33.4439 2.0477 33.3507C2.12169 33.2355 2.18876 33.1287 2.26678 33.0093C2.26706 33.0095 2.26735 33.0098 2.26793 33.0104C3.19921 31.582 4.40537 29.8378 5.85597 27.8984C5.98177 28.1523 6.13751 28.3645 6.34506 28.5012C6.41271 28.5631 6.4867 28.6167 6.56269 28.6673C3.8662 32.038 1.90607 34.7239 0.861156 36.0648C0.858277 36.0685 0.85511 36.0723 0.852232 36.0763C0.731041 36.2321 0.621937 36.3699 0.525787 36.488C0.523772 36.4903 0.522333 36.4923 0.520318 36.4946C0.434817 36.5994 0.362567 36.684 0.297509 36.7571C0.285419 36.7709 0.272177 36.7862 0.260662 36.7986C0.200497 36.8645 0.150982 36.9134 0.11126 36.9468C0.102912 36.9537 0.0962917 36.9583 0.0888065 36.9638C0.0519592 36.9912 0.0225966 37.0067 0.00819966 36.9972C-0.00446698 36.9912 -0.0010127 36.9601 0.00877483 36.9192L0.00871692 36.9191Z" fill="#BB6699"/>
<path d="M31.7689 3.06347C31.6065 2.80094 22.7074 8.82551 13.8766 18.3264C10.7132 21.6964 8.01299 25.0142 5.85492 27.8986C4.75554 25.6782 6.76748 19.1997 11.72 12.0387C12.4923 13.6252 13.2898 14.6152 13.2892 14.6166C13.2892 14.6151 13.2137 12.8833 12.6751 10.7444C13.2831 9.96608 13.9432 9.20489 14.6617 8.47377C14.7417 10.6935 15.4839 12.2826 15.4813 12.2826C15.4813 12.2786 16.7499 9.94854 17.0464 7.09862C17.074 6.82399 17.0896 6.55599 17.0988 6.29314C26.0122 -0.722514 36.6986 0.00345138 36.5829 0.0357296C36.5916 0.0437904 35.0699 4.11945 32.2859 8.85256C32.2677 8.85112 32.2487 8.84853 32.2306 8.84853C29.2629 8.70977 26.5832 9.94761 26.5886 9.94879C26.588 9.95282 28.3772 10.8795 30.862 11.1409C30.3482 11.9248 29.796 12.7141 29.2073 13.4979C26.6882 13.1922 24.5499 13.5814 24.5519 13.58C24.5505 13.5826 26.0563 14.2818 28.2087 14.7718C27.2685 15.9261 26.2408 17.0589 25.1009 18.1321C17.5685 25.1435 9.31031 30.498 6.5615 28.6675C8.81899 25.8455 11.5892 22.5476 14.7711 19.1594C23.5068 9.75742 31.9972 3.35189 31.768 3.063L31.7689 3.06347Z" fill="#BB6699"/>
</svg>
