<svg width="24" height="25" viewBox="0 0 24 25" fill="none" xmlns="http://www.w3.org/2000/svg">
<rect width="24" height="24" transform="translate(0 0.333496)" fill="white"/>
<path d="M20.84 4.94361C20.3292 4.43262 19.7228 4.02726 19.0554 3.7507C18.3879 3.47413 17.6725 3.33179 16.95 3.33179C16.2275 3.33179 15.5121 3.47413 14.8446 3.7507C14.1772 4.02726 13.5708 4.43262 13.06 4.94361L12 6.00361L10.94 4.94361C9.9083 3.91192 8.50903 3.33232 7.05 3.33232C5.59096 3.33232 4.19169 3.91192 3.16 4.94361C2.1283 5.97531 1.54871 7.37458 1.54871 8.83361C1.54871 10.2926 2.1283 11.6919 3.16 12.7236L4.22 13.7836L12 21.5636L19.78 13.7836L20.84 12.7236C21.351 12.2129 21.7563 11.6064 22.0329 10.939C22.3095 10.2715 22.4518 9.5561 22.4518 8.83361C22.4518 8.11112 22.3095 7.39572 22.0329 6.72826C21.7563 6.0608 21.351 5.45437 20.84 4.94361Z" fill="#FFE4E4" stroke="#FF0000" stroke-width="2" stroke-linecap="round" stroke-linejoin="round"/>
</svg>
